<svg width="19" height="24" viewBox="0 0 19 24" fill="none" xmlns="http://www.w3.org/2000/svg" fill="currentColor">
<path fill-rule="evenodd" clip-rule="evenodd" d="M8.23598 4.27155C8.32626 4.06841 8.52771 3.9375 8.75 3.9375C9.49592 3.9375 10.2113 4.23382 10.7387 4.76126C11.2662 5.28871 11.5625 6.00408 11.5625 6.75V9.1875H15.2421C15.5399 9.18462 15.8348 9.24628 16.1065 9.36823C16.3793 9.49065 16.6222 9.67092 16.8184 9.89653C17.0145 10.1222 17.1593 10.3877 17.2427 10.6749C17.3261 10.962 17.346 11.2638 17.3011 11.5594L16.2661 18.3093C16.1915 18.8011 15.9417 19.2495 15.5627 19.5716C15.1846 19.893 14.7033 20.0673 14.2071 20.0625H3.5C2.95299 20.0625 2.42839 19.8452 2.04159 19.4584C1.6548 19.0716 1.4375 18.547 1.4375 18V12.75C1.4375 12.203 1.6548 11.6784 2.04159 11.2916C2.42839 10.9048 2.95299 10.6875 3.5 10.6875H5.38445L8.23598 4.27155ZM6.3125 11.3694L9.09931 5.09904C9.41658 5.16618 9.71043 5.32394 9.94324 5.55676C10.2597 5.87322 10.4375 6.30245 10.4375 6.75V9.75C10.4375 10.0607 10.6893 10.3125 11 10.3125H15.245L15.2514 10.3125C15.3873 10.3109 15.5219 10.3389 15.6459 10.3946C15.7698 10.4502 15.8803 10.5322 15.9694 10.6347C16.0586 10.7373 16.1244 10.858 16.1623 10.9885C16.2002 11.1189 16.2093 11.256 16.1889 11.3903L15.1539 18.1407C15.12 18.3642 15.0064 18.568 14.8341 18.7144C14.6618 18.8609 14.4424 18.9401 14.2164 18.9375L6.3125 18.9375V11.3694ZM5.1875 18.9375V11.8125H3.5C3.25136 11.8125 3.0129 11.9113 2.83709 12.0871C2.66127 12.2629 2.5625 12.5014 2.5625 12.75V18C2.5625 18.2486 2.66127 18.4871 2.83709 18.6629C3.0129 18.8387 3.25136 18.9375 3.5 18.9375H5.1875Z" />
</svg>
