<svg width="12" height="11" viewBox="0 0 12 11" fill="none" xmlns="http://www.w3.org/2000/svg">
<path d="M10.6823 5.25525C10.8802 5.39362 11.0625 5.53088 11.0625 6.0135C11.0625 6.49725 10.8049 6.693 10.5293 6.82913C10.6418 7.0125 10.6777 7.23413 10.6294 7.44338C10.5427 7.83038 10.1884 8.13075 9.87337 8.21962C10.0095 8.43787 10.0522 8.65275 9.89025 8.91713C9.68213 9.249 9.501 9.375 8.7 9.375H5.4375C4.326 9.375 3.75 8.76075 3.75 8.25V5.62313C3.75 4.23937 5.40037 3.06375 5.40037 2.10187L5.28113 0.90375C5.2755 0.830625 5.29013 0.65175 5.34637 0.6C5.43638 0.511125 5.685 0.375 6.06075 0.375C6.306 0.375 6.46913 0.421125 6.6615 0.513375C7.31513 0.825 7.485 1.61362 7.485 2.24812C7.485 2.553 7.01925 3.4665 6.95625 3.78262C6.95625 3.78262 7.93163 3.56662 9.07013 3.55875C10.2638 3.552 11.0377 3.7725 11.0377 4.506C11.0377 4.79962 10.7914 5.09437 10.6823 5.25525ZM1.05 4.875H1.95C2.12902 4.875 2.30071 4.94612 2.4273 5.0727C2.55388 5.19929 2.625 5.37098 2.625 5.55V9.825C2.625 10.004 2.55388 10.1757 2.4273 10.3023C2.30071 10.4289 2.12902 10.5 1.95 10.5H1.05C0.870979 10.5 0.69929 10.4289 0.572703 10.3023C0.446116 10.1757 0.375 10.004 0.375 9.825V5.55C0.375 5.37098 0.446116 5.19929 0.572703 5.0727C0.69929 4.94612 0.870979 4.875 1.05 4.875Z" fill="white"/>
</svg>
